<?xml version="1.0" encoding="utf-8"?>
<!-- Generator: Adobe Illustrator 27.7.0, SVG Export Plug-In . SVG Version: 6.00 Build 0)  -->
<svg version="1.1" id="Ebene_1" xmlns="http://www.w3.org/2000/svg" xmlns:xlink="http://www.w3.org/1999/xlink" x="0px" y="0px"
	 viewBox="0 0 130.72 1491.06" style="enable-background:new 0 0 130.72 1491.06;" xml:space="preserve">
<style type="text/css">
	.st0{fill:none;}
	.st1{fill:#B07346;}
	.st2{fill:#431A16;}
	.st3{fill:#F3EBE8;}
</style>
<g>
	<path class="st0" d="M16.64,1442.71c-0.54-11.69-0.85-25.15-0.85-40.68c0-83.02,27.33-144.5,50.06-212.7
		c-6.42-51.47-22.77-92.12-26.22-112.52c-5.56-32.89,5.56-69.06,18-154.56c0.25-1.7,0.48-3.38,0.7-5.04
		c0.12-8.5,1.12-17.75,2.75-28.46c3.51-61.94-12.02-93.77-15.45-147.37c-2.83-44.26,8.46-81.91,20.21-115.31
		c-0.02-0.23-0.04-0.46-0.05-0.69c-2.6-37.67,6.72-70.17,17.37-99.2c-3.31-37.49-13.04-76.26-17.37-90.64
		c-6.93-23.02-0.9-85.5,5.13-138.12c6.03-52.62-4.64-144.69-9.29-174.29C57.12,94.39,57.6,71.83,66.8,4.2h12.82h24.75h26.36V0H0
		v1491.06h4.73C8.07,1474.48,12.14,1458.46,16.64,1442.71z"/>
	<path class="st1" d="M87.17,1050.19c-3.46-10.53-6.32-19.17-7.54-25.57c-1.42-7.41-1.75-15-1.25-23.47
		c-7.27-29.02-16.16-51.75-18.59-65.11c-1.1-6.05-1.55-12.21-1.46-18.84c-0.22,1.66-0.45,3.34-0.7,5.04
		c-12.44,85.5-23.56,121.68-18,154.56c3.45,20.4,19.8,61.05,26.22,112.52c5.62-16.87,10.96-34.15,15.54-52.27
		C89.16,1106.25,89.86,1076.83,87.17,1050.19z"/>
	<path class="st1" d="M104.35,453.71c-1.55-8.07-1.92-19.24-1.51-32.15c-3.68-33.27-12.76-66.68-16.9-79.42
		c-6.93-21.32-0.9-79.19,5.13-127.92c6.03-48.73-4.64-134.01-9.29-161.42c-2.57-15.15-3.52-28.44-2.17-48.6H66.8
		c-9.21,67.63-9.69,90.19-5.17,118.95c4.64,29.6,15.32,121.68,9.29,174.29c-6.03,52.62-12.07,115.1-5.13,138.12
		c4.33,14.38,14.06,53.15,17.37,90.64c5.71-15.56,11.8-30.13,16.63-43.95C102.63,474.12,104.01,464.33,104.35,453.71z"/>
	<path class="st1" d="M4.73,1491.06H21.3c-1.91-11.09-3.67-26.63-4.66-48.35C12.14,1458.46,8.07,1474.48,4.73,1491.06z"/>
	<path class="st1" d="M65.84,626.08c-11.75,33.4-23.04,71.05-20.21,115.31c3.43,53.6,18.96,85.42,15.45,147.37
		c3.5-22.95,9.91-52.58,16.71-95.86C90.18,714.03,69.95,683.5,65.84,626.08z"/>
	<path class="st2" d="M59.79,936.05c2.44,13.36,11.33,36.09,18.59,65.11c1.46-24.66,9.99-56.67,19.25-112.78
		c12.44-75.37-8-104.36-12-159.44c-4-55.08,20.15-98.56,34-136.25c13.85-37.69-6.91-113.06-13.85-133.35
		c-0.56-1.64-1.03-3.54-1.43-5.61c-0.35,10.62-1.73,20.41-4.57,28.53c-4.83,13.82-10.92,28.39-16.63,43.95
		c-10.65,29.02-19.97,61.53-17.37,99.2c0.02,0.23,0.03,0.46,0.05,0.69c4.11,57.42,24.34,87.95,11.95,166.82
		c-6.8,43.28-13.2,72.91-16.71,95.86c-1.63,10.7-2.63,19.95-2.75,28.46C58.24,923.83,58.68,930,59.79,936.05z"/>
	<path class="st2" d="M81.79,52.8c4.64,27.41,15.32,112.69,9.29,161.42c-6.03,48.73-12.07,106.6-5.13,127.92
		c4.14,12.74,13.22,46.15,16.9,79.42c0.79-24.78,4.43-55.97,8.07-83.99c6.03-46.38-4.64-127.55-9.29-153.65
		c-4.64-26.09-4-46.38,6-110.16c7.26-46.31,0.81-63.58-3.26-69.56H79.62C78.27,24.36,79.22,37.65,81.79,52.8z"/>
	<path class="st2" d="M101.22,1215.95c17.98-67.8-1.82-128.54-14.05-165.77c2.69,26.64,1.99,56.06-5.79,86.88
		c-4.57,18.12-9.91,35.4-15.54,52.27c-22.73,68.2-50.06,129.69-50.06,212.7c0,15.53,0.32,28.99,0.85,40.68
		c0.99,21.72,2.75,37.27,4.66,48.35h14.61c-0.18-7.06-0.28-14.67-0.28-22.9C35.63,1369.6,78.16,1302.92,101.22,1215.95z"/>
	<path class="st3" d="M107.63,73.76c-10,63.78-10.64,84.07-6,110.16c4.64,26.09,15.32,107.26,9.29,153.65
		c-3.65,28.02-7.29,59.21-8.07,83.99c-0.41,12.91-0.04,24.08,1.51,32.15c0.4,2.08,0.87,3.97,1.43,5.61
		c6.93,20.29,27.69,95.67,13.85,133.35c-13.85,37.69-38,81.17-34,136.25c4,55.08,24.44,84.07,12,159.44
		c-9.26,56.12-17.79,88.13-19.25,112.78c-0.5,8.46-0.17,16.06,1.25,23.47c1.23,6.39,4.08,15.04,7.54,25.57
		c12.24,37.22,32.03,97.97,14.05,165.77c-23.07,86.97-65.59,153.65-65.59,252.21c0,8.23,0.1,15.85,0.28,22.9h94.82V4.2h-26.36
		C108.44,10.18,114.89,27.45,107.63,73.76z"/>
</g>
</svg>
