<?xml version="1.0" standalone="no"?>
<svg xmlns:xlink="http://www.w3.org/1999/xlink" id="wave" style="transform:rotate(0deg); transition: 0.3s" viewBox="0 0 1440 160" version="1.1" xmlns="http://www.w3.org/2000/svg"><defs><linearGradient id="sw-gradient-0" x1="0" x2="0" y1="1" y2="0"><stop stop-color="rgba(176, 115, 71, 1)" offset="0%"/><stop stop-color="rgba(176, 115, 71, 1)" offset="100%"/></linearGradient></defs><path style="transform:translate(0, 0px); opacity:1" fill="url(#sw-gradient-0)" d="M0,112L13.3,114.7C26.7,117,53,123,80,112C106.7,101,133,75,160,56C186.7,37,213,27,240,21.3C266.7,16,293,16,320,37.3C346.7,59,373,101,400,106.7C426.7,112,453,80,480,66.7C506.7,53,533,59,560,53.3C586.7,48,613,32,640,21.3C666.7,11,693,5,720,18.7C746.7,32,773,64,800,85.3C826.7,107,853,117,880,114.7C906.7,112,933,96,960,77.3C986.7,59,1013,37,1040,45.3C1066.7,53,1093,91,1120,98.7C1146.7,107,1173,85,1200,66.7C1226.7,48,1253,32,1280,26.7C1306.7,21,1333,27,1360,48C1386.7,69,1413,107,1440,117.3C1466.7,128,1493,112,1520,106.7C1546.7,101,1573,107,1600,109.3C1626.7,112,1653,112,1680,109.3C1706.7,107,1733,101,1760,93.3C1786.7,85,1813,75,1840,58.7C1866.7,43,1893,21,1907,10.7L1920,0L1920,160L1906.7,160C1893.3,160,1867,160,1840,160C1813.3,160,1787,160,1760,160C1733.3,160,1707,160,1680,160C1653.3,160,1627,160,1600,160C1573.3,160,1547,160,1520,160C1493.3,160,1467,160,1440,160C1413.3,160,1387,160,1360,160C1333.3,160,1307,160,1280,160C1253.3,160,1227,160,1200,160C1173.3,160,1147,160,1120,160C1093.3,160,1067,160,1040,160C1013.3,160,987,160,960,160C933.3,160,907,160,880,160C853.3,160,827,160,800,160C773.3,160,747,160,720,160C693.3,160,667,160,640,160C613.3,160,587,160,560,160C533.3,160,507,160,480,160C453.3,160,427,160,400,160C373.3,160,347,160,320,160C293.3,160,267,160,240,160C213.3,160,187,160,160,160C133.3,160,107,160,80,160C53.3,160,27,160,13,160L0,160Z"/><defs><linearGradient id="sw-gradient-1" x1="0" x2="0" y1="1" y2="0"><stop stop-color="rgba(67, 26, 22, 1)" offset="0%"/><stop stop-color="rgba(67, 26, 22, 1)" offset="100%"/></linearGradient></defs><path style="transform:translate(0, 50px); opacity:0.9" fill="url(#sw-gradient-1)" d="M0,96L13.3,93.3C26.7,91,53,85,80,77.3C106.7,69,133,59,160,48C186.7,37,213,27,240,29.3C266.7,32,293,48,320,61.3C346.7,75,373,85,400,74.7C426.7,64,453,32,480,32C506.7,32,533,64,560,80C586.7,96,613,96,640,82.7C666.7,69,693,43,720,29.3C746.7,16,773,16,800,21.3C826.7,27,853,37,880,50.7C906.7,64,933,80,960,74.7C986.7,69,1013,43,1040,26.7C1066.7,11,1093,5,1120,8C1146.7,11,1173,21,1200,37.3C1226.7,53,1253,75,1280,69.3C1306.7,64,1333,32,1360,24C1386.7,16,1413,32,1440,34.7C1466.7,37,1493,27,1520,40C1546.7,53,1573,91,1600,101.3C1626.7,112,1653,96,1680,98.7C1706.7,101,1733,123,1760,109.3C1786.7,96,1813,48,1840,45.3C1866.7,43,1893,85,1907,106.7L1920,128L1920,160L1906.7,160C1893.3,160,1867,160,1840,160C1813.3,160,1787,160,1760,160C1733.3,160,1707,160,1680,160C1653.3,160,1627,160,1600,160C1573.3,160,1547,160,1520,160C1493.3,160,1467,160,1440,160C1413.3,160,1387,160,1360,160C1333.3,160,1307,160,1280,160C1253.3,160,1227,160,1200,160C1173.3,160,1147,160,1120,160C1093.3,160,1067,160,1040,160C1013.3,160,987,160,960,160C933.3,160,907,160,880,160C853.3,160,827,160,800,160C773.3,160,747,160,720,160C693.3,160,667,160,640,160C613.3,160,587,160,560,160C533.3,160,507,160,480,160C453.3,160,427,160,400,160C373.3,160,347,160,320,160C293.3,160,267,160,240,160C213.3,160,187,160,160,160C133.3,160,107,160,80,160C53.3,160,27,160,13,160L0,160Z"/></svg>