<?xml version="1.0" encoding="utf-8"?>
<!-- Generator: Adobe Illustrator 27.7.0, SVG Export Plug-In . SVG Version: 6.00 Build 0)  -->
<svg version="1.1" id="Ebene_1" xmlns="http://www.w3.org/2000/svg" xmlns:xlink="http://www.w3.org/1999/xlink" x="0px" y="0px"
	 viewBox="0 0 136.85 1502.3" style="enable-background:new 0 0 136.85 1502.3;" xml:space="preserve">
<style type="text/css">
	.st0{fill:none;}
	.st1{fill:#F3EBE8;}
	.st2{fill:#B07346;}
	.st3{fill:#431A16;}
</style>
<g>
	<path class="st0" d="M9.1,1502.3c3.78-26.16,9.64-50.64,16.47-74.51c-0.54-11.69-0.85-25.15-0.85-40.68
		c0-83.02,27.33-144.5,50.06-212.7c-6.42-51.47-22.77-92.12-26.21-112.52c-5.56-32.89,5.56-69.06,18-154.56
		c0.25-1.7,0.48-3.38,0.7-5.04c0.12-8.5,1.12-17.75,2.75-28.46c3.51-61.94-12.02-93.77-15.45-147.37
		c-2.83-44.26,8.46-81.91,20.21-115.31c-0.02-0.23-0.04-0.46-0.05-0.69c-2.6-37.67,6.72-70.17,17.37-99.2
		c-3.31-37.49-13.04-76.26-17.37-90.64c-6.93-23.02-0.9-85.5,5.13-138.12c6.03-52.62-4.64-144.69-9.29-174.29
		C66.29,81.04,66.48,59.4,74.29,0H0v1502.3H9.1z"/>
	<path class="st1" d="M70.55,108.22c4.64,29.6,15.32,121.68,9.29,174.29c-6.03,52.62-12.07,115.1-5.13,138.12
		c4.33,14.38,14.06,53.15,17.37,90.64c5.71-15.56,11.8-30.13,16.63-43.95c2.84-8.12,4.22-17.92,4.57-28.53
		c-1.55-8.07-1.92-19.23-1.51-32.15c-3.68-33.27-12.76-66.68-16.9-79.42c-6.93-21.32-0.9-79.19,5.13-127.92
		c6.03-48.73-4.64-134.01-9.29-161.42C88.63,25.58,87.61,14.51,88.02,0H74.29C66.48,59.4,66.29,81.04,70.55,108.22z"/>
	<path class="st1" d="M96.1,1035.26c-3.46-10.53-6.32-19.17-7.54-25.57c-1.42-7.41-1.75-15-1.25-23.47
		c-7.27-29.02-16.16-51.75-18.59-65.11c-1.1-6.05-1.55-12.21-1.46-18.84c-0.22,1.66-0.45,3.34-0.7,5.04
		c-12.44,85.5-23.56,121.68-18,154.56c3.45,20.4,19.8,61.05,26.21,112.52c5.62-16.87,10.96-34.15,15.54-52.27
		C98.08,1091.32,98.79,1061.9,96.1,1035.26z"/>
	<path class="st1" d="M74.76,611.16c-11.75,33.4-23.04,71.05-20.21,115.31c3.43,53.6,18.96,85.42,15.45,147.37
		c3.5-22.95,9.91-52.58,16.71-95.86C99.1,699.11,78.88,668.57,74.76,611.16z"/>
	<path class="st1" d="M9.1,1502.3h29.14c-2.03-2.7-10.03-16.85-12.68-74.51C18.74,1451.66,12.88,1476.14,9.1,1502.3z"/>
	<path class="st2" d="M110.15,1201.03c17.98-67.8-1.82-128.54-14.05-165.77c2.69,26.64,1.99,56.06-5.79,86.88
		c-4.57,18.12-9.91,35.4-15.54,52.27c-22.73,68.2-50.06,129.69-50.06,212.7c0,15.53,0.32,28.99,0.85,40.68
		c2.64,57.66,10.64,71.81,12.68,74.51h7.76c-0.89-13.31-1.44-29.46-1.44-49.06C44.55,1354.67,87.08,1288,110.15,1201.03z"/>
	<path class="st2" d="M68.71,921.12c2.44,13.36,11.33,36.09,18.59,65.11c1.46-24.66,9.99-56.67,19.25-112.78
		c12.44-75.37-8-104.36-12-159.44c-4-55.08,20.15-98.56,34-136.25c13.85-37.69-6.91-113.06-13.85-133.35
		c-0.56-1.64-1.03-3.54-1.43-5.61c-0.35,10.62-1.73,20.41-4.57,28.53c-4.83,13.82-10.92,28.39-16.63,43.95
		c-10.65,29.02-19.97,61.53-17.37,99.2c0.02,0.23,0.03,0.46,0.05,0.69c4.11,57.42,24.34,87.95,11.95,166.82
		c-6.8,43.28-13.2,72.91-16.71,95.86c-1.63,10.71-2.63,19.95-2.75,28.46C67.16,908.91,67.61,915.08,68.71,921.12z"/>
	<path class="st2" d="M90.71,37.88c4.64,27.41,15.32,112.69,9.29,161.42c-6.03,48.73-12.07,106.6-5.13,127.92
		c4.14,12.74,13.22,46.15,16.9,79.42c0.79-24.78,4.43-55.97,8.07-83.99c6.03-46.38-4.64-127.55-9.29-153.65
		c-4.64-26.09-4-46.38,6-110.16c4.79-30.56,3.61-48.47,1.09-58.84H88.02C87.61,14.51,88.63,25.58,90.71,37.88z"/>
	<path class="st3" d="M116.55,58.84c-10,63.78-10.64,84.07-6,110.16c4.64,26.09,15.32,107.26,9.29,153.65
		c-3.65,28.02-7.29,59.21-8.07,83.99c-0.41,12.91-0.04,24.08,1.51,32.15c0.4,2.08,0.87,3.97,1.43,5.61
		c6.93,20.29,27.69,95.67,13.85,133.35c-13.85,37.69-38,81.17-34,136.25c4,55.08,24.44,84.07,12,159.44
		c-9.26,56.12-17.79,88.13-19.25,112.78c-0.5,8.46-0.17,16.06,1.25,23.47c1.23,6.39,4.08,15.04,7.54,25.57
		c12.24,37.22,32.03,97.97,14.05,165.77c-23.07,86.97-65.59,153.65-65.59,252.21c0,19.6,0.55,35.75,1.44,49.06h90.86V0h-19.21
		C120.17,10.37,121.34,28.28,116.55,58.84z"/>
</g>
</svg>
